<?xml version="1.0" encoding="utf-8"?>
<!-- Generator: Adobe Illustrator 27.5.0, SVG Export Plug-In . SVG Version: 6.00 Build 0)  -->
<svg version="1.1" id="Capa_1" xmlns="http://www.w3.org/2000/svg" xmlns:xlink="http://www.w3.org/1999/xlink" x="0px" y="0px"
	 viewBox="0 0 2122 2122" style="enable-background:new 0 0 2122 2122;" xml:space="preserve">
<path style="fill:#5571B6;" d="M1478.121,1934.094c256.457-9.199,402.848-40.828,402.848-40.828
	c-16.348-391.77-101.504-515.082-224.324-544.41c-4.512-1.082-9.074-2.02-13.676-2.855c-0.055,0.457-0.156,0.926-0.371,1.402
	c-37.453,82.199-74.898,164.402-112.352,246.605c-2.223,4.867-9.383,0.645-7.18-4.199c37.242-81.734,74.477-163.469,111.715-245.207
	c-111.016-18.313-203.797-33.406-225.363-36.875c8.973,92.922,17.938,185.848,26.906,278.773c0.262,2.742-2.848,4.652-5.262,4.004
	c-9.902-2.656-19.797-5.309-29.695-7.969c9.684,10.777,19.367,21.555,29.047,32.328c6.473,7.207,5.777,9.195,3.18,17.891
	c-30.23,101.273-60.465,202.543-90.699,303.813c44.883-0.051,87.32-0.84,127.137-2.18c-0.086-0.336-0.141-0.699-0.141-1.094
	c0-38.629,0-77.254,0-115.883c0-5.359,8.313-5.359,8.313,0c0,38.629,0,77.254,0,115.883
	C1478.203,1933.578,1478.164,1933.84,1478.121,1934.094z"/>
<path style="fill:#5571B6;" d="M1412.809,1673.316c4.906-16.418,9.805-32.84,14.711-49.258c-0.414-0.457-0.82-0.91-1.227-1.363
	c-4.766-5.305-9.531-10.605-14.297-15.906c-8.668-9.652-17.344-19.305-26.016-28.961c-17.973-17.32-35.953-34.641-53.93-51.957
	c-3.863-3.723,2.023-9.598,5.879-5.879c17.699,17.051,35.398,34.109,53.098,51.156c12.152,3.266,24.297,6.523,36.441,9.789
	c-8.699-90.168-17.395-180.336-26.098-270.504c-28.891-6.641-57.781-13.281-86.668-19.922
	c-7.387,10.969-17.125,22.152-28.145,33.121c2.254,1.246,3.473,4.234,0.98,6.336c-7.262,6.137-14.461,12.344-21.672,18.535
	c0.047,0.375,0.051,0.77-0.012,1.188c-14.77,95.938-29.516,191.883-44.246,287.832c-10.336,67.348-20.672,134.695-30.949,202.051
	c-3.445,22.547-6.887,45.098-10.293,67.648c-0.984,6.496-1.961,12.988-2.922,19.488c-0.332,2.266-0.934,6.465-0.941,6.582
	c-0.004,0.051-0.02,0.098-0.023,0.152c55.492,2.129,108.176,3.082,157.891,3.129c0.02-0.352,0.063-0.711,0.176-1.098
	c6.461-21.633,12.918-43.27,19.375-64.902C1373.551,1804.824,1393.18,1739.07,1412.809,1673.316z"/>
<path style="fill:#5571B6;" d="M943.883,1926.711c-0.965-6.5-1.945-12.992-2.93-19.488c-3.32-22-6.672-43.992-10.031-65.988
	c-10.141-66.449-20.336-132.891-30.531-199.324c-12.254-79.816-24.527-159.617-36.805-239.422
	c-5.906-3.656-11.703-7.457-17.269-11.52c-2.063-1.512-2.16-3.957-1.234-5.742c-39.137-25-87.527-58.273-104.039-79.641
	c-7.027,1.613-14.059,3.23-21.09,4.848c-8.703,90.168-17.398,180.336-26.102,270.504c12.148-3.266,24.297-6.523,36.445-9.789
	c17.699-17.047,35.398-34.105,53.094-51.156c3.859-3.719,9.746,2.156,5.883,5.879c-17.98,17.316-35.957,34.637-53.93,51.957
	c-12.164,13.539-24.328,27.074-36.488,40.613c-1.68,1.871-3.363,3.746-5.047,5.617c0.644,2.164,1.293,4.32,1.934,6.484
	c30.344,101.648,60.691,203.293,91.035,304.934c0.113,0.387,0.16,0.746,0.176,1.098c49.719-0.047,102.402-1,157.891-3.129
	c-0.004-0.055-0.02-0.102-0.02-0.152C944.813,1933.176,944.215,1928.977,943.883,1926.711z"/>
<path style="fill:#5571B6;" d="M698.156,1667.68c-4.328-14.496-8.652-28.984-12.981-43.48c-0.902-3.004,2.207-5.41,3.981-7.387
	c4.766-5.301,9.531-10.602,14.297-15.902c5.5-6.129,11.004-12.246,16.504-18.375c-9.898,2.66-19.793,5.313-29.695,7.969
	c-2.414,0.648-5.519-1.262-5.258-4.004c8.961-92.883,17.922-185.758,26.887-278.641c-18.211,3.742-85.492,19.031-191.133,40.723
	c-7.648,1.574-15.516,3.594-23.523,6.102c0.016,0.051,0.039,0.094,0.055,0.152c8.453,38.824,19.273,77.234,30.437,115.34
	c16.793,57.348,35.254,114.367,57.996,169.66c2.043,4.957-6.004,7.094-8.012,2.211c-22.742-55.285-41.277-112.301-58-169.664
	c-11.094-38.047-21.938-76.352-30.383-115.094c-105.855,37.082-233.43,163.539-248.973,535.977c0,0,198.449,42.883,538.07,43.301
	c-7.238-24.246-14.473-48.496-21.715-72.742C737.191,1798.441,717.672,1733.063,698.156,1667.68z"/>
<path style="fill:#565056;" d="M1296.023,856.242c23.02-24.59,42.266-51.875,58.043-80.473c-6.766-0.93-12.918-2.48-18.414-4.656
	C1325.957,801.144,1312.801,829.961,1296.023,856.242z"/>
<path style="fill:#565056;" d="M722.914,771.734c-6.504,2.375-13.82,3.961-22.035,4.629c24.789,47.398,59.09,91.063,104.598,124.738
	C768.035,866.406,739.949,822.582,722.914,771.734z"/>
<path style="fill:#F8C3BD;" d="M1475.16,610.332c-5.215-15.758-13.613-26.922-23.949-34.25c-0.355-0.023-0.727-0.082-1.113-0.215
	c-21.945-7.496-42.918-7.516-62.191-1.644c0.102,5.016,0.504,9.808,1.32,14.105c-0.215-0.09-0.406-0.184-0.617-0.273
	c-0.238,2.668-3.113,5.231-6.227,3.547c-4.832-2.609-9.215-5.852-13.234-9.555c-14.344,7.66-27.457,18.703-38.957,32.344
	c-2.004,2.371-4.781,1.398-6.129-0.625c-4.363,6.215-8.336,12.883-11.84,19.871l0,0c0-0.004,0-0.004,0-0.004
	c-17.98-21.27-22.5-53.09-26.59-85.867c-1.82,2.109-3.535,4.207-5.129,6.297c0.141,0.82,0.289,1.644,0.426,2.465
	c0.887,5.242-7.125,7.488-8.016,2.211c-3.625-21.438-7.48-43.02-12.094-64.434c-10.664,19.746-23.223,37.606-37.676,53.574
	c2.039,0.648,3.918,1.344,5.574,2.094c11.695,5.305,27.922,15.598,30.813,29.242c7.75,36.625-123.609,13.746-123.609,13.746
	c-7.203-14.391-6.176-25.094-0.227-32.805c-4.484,2.688-9.012,5.586-13.547,8.863c-0.441,1.774-0.879,3.547-1.328,5.32
	c-1.313,5.191-9.328,2.988-8.012-2.211c10.289-40.688,18.328-82.289,20.438-124.289c1.246-24.828,1.301-50.586-4.426-74.934
	c-0.676-2.883-1.727-8.023-3.434-13.18c-13.105-2.199-26.168-1.875-38.809,1.77c-1.043,0.918-2.082,1.773-3.121,2.516
	c-8.641,6.176-17.902,8.68-28.023,4.855c-5.84,0.551-10.605-0.996-14.301-4.391c-0.172-0.031-0.379-0.066-0.535-0.094
	c-19.34-3.773-37.621-5.328-54.93-4.945c-10.117,18.563-17.965,39.254-20.387,44.883c-19.371,45.016-35.906,106.992-74.758,141.602
	c23.359,5.441,39.781,19.457,25.981,47.039c0,0-131.363,22.879-123.609-13.746c0.781-3.688,2.555-7.117,4.93-10.281
	c-6.156,4.445-12.531,8.598-19.09,12.262c-2.773,18.621-9.84,37.797-27.805,58.387h-0.004c-3.758-8.305-8.188-16.238-13.144-23.586
	c-1.445,1.691-3.914,2.324-5.707,0.121c-10.25-12.586-21.934-23.59-35.238-31.394c-17.133,5.883-35.519,8.602-54.594,8.269
	c-5.352-0.094-5.363-8.406,0-8.313c0.563,0.008,1.113-0.016,1.668-0.008c0.043-6.586,0.145-13.16,0.324-19.723
	c-25.762,0.836-48.711,14.043-59.07,45.383c-17.648,60.746,34.84,165.012,104.203,166.399c4.027,0.078,7.844-0.07,11.512-0.367
	c8.215-0.668,15.531-2.254,22.035-4.629c17.035,50.848,45.121,94.672,82.563,129.367c27.109,25.113,59.109,45.445,95.387,60.184
	c0.5,55.207,1.406,129.637,3.004,199.531l2.305,54.164c16.707,18.094,89.203,38.543,116.273,45.988
	c0.926-3.883,7.008-3.875,8.027,0.02c27.555-7.43,105.469-27.895,122.195-46.008l-0.363-41.273
	c-2.492-7.039-4.609-14.172-6.926-21.246c-4.117-12.555-9.656-24.344-17.164-35.801c-7.457-11.371-15.961-22.438-24.965-33.023
	c-7.754-9.105-16.762-17.457-26.758-24.922c-10.031-7.492-21.125-13.969-32.801-19.609c-13.109-6.336-27.25-10.949-41.602-14.988
	c-15.02-4.227-30.398-7.66-45.23-12.316c-14.656-4.594-28.926-10.078-43.992-13.742c-3.902-0.953-7.984-1.93-11.672-3.457
	c-0.129-11.691-0.234-22.844-0.332-33.316c34.019,13.828,71.793,22.738,112.781,26.066c0.66-0.961,1.734-1.641,3.258-1.648
	c91.891-0.258,188.957-22.941,250.129-96.563c1.613-1.938,3.75-1.648,5.215-0.387c8.605-10.297,16.535-21.164,23.777-32.512
	c16.777-26.281,29.934-55.098,39.629-85.129c5.496,2.176,11.648,3.727,18.414,4.656c5.25,0.719,10.848,1.078,16.895,0.961
	C1440.316,775.344,1492.805,671.078,1475.16,610.332z"/>
<path style="fill:#F8C3BD;" d="M846.977,544.191c3.184-11.559,6.77-22.703,11.457-32.75c-8.336,10.426-17.426,20.273-27.18,29.43
	c-4.16,3.902-8.555,7.902-13.125,11.871c1.922-1.031,3.801-1.961,5.578-2.769C829.457,547.367,837.695,545.34,846.977,544.191z"/>
<path style="fill:#F8C3BD;" d="M1189.008,543.148c-1.289-8.289-2.418-15.793-2.418-21.023c-8.281,11.043-17.832,18.301-28.055,24.66
	c7.594-2.113,16.09-3.242,24.625-3.551C1185.113,543.164,1187.066,543.137,1189.008,543.148z"/>
<path style="fill:#F39DA0;" d="M1152.16,1159.711c-0.016-0.422-0.031-0.844-0.039-1.262c-0.082-2.476-0.16-4.953-0.238-7.43
	c-0.012-0.273-0.02-0.539-0.027-0.813c-1.984-63.676-3.102-127.445-3.277-174.91c-42.191,13.336-87.563,18.594-131.676,18.719
	c-3.844,0.012-4.918-4.238-3.258-6.664c-40.988-3.328-78.762-12.238-112.781-26.066c0.098,10.473,0.203,21.625,0.332,33.316
	c3.688,1.527,7.77,2.504,11.672,3.457c15.066,3.664,29.336,9.148,43.992,13.742c14.832,4.656,30.211,8.09,45.23,12.316
	c14.352,4.039,28.492,8.652,41.602,14.988c11.676,5.641,22.77,12.117,32.801,19.609c9.996,7.465,19.004,15.816,26.758,24.922
	c9.004,10.586,17.508,21.652,24.965,33.023c7.508,11.457,13.047,23.246,17.164,35.801c2.316,7.074,4.434,14.207,6.926,21.246
	l-0.109-12.996C1152.18,1160.375,1152.168,1160.043,1152.16,1159.711z"/>
<path style="fill:#F39DA0;" d="M1324.938,705.227c-10.055-18.445-26.367-28.785-44.297-32.477
	c-46.324-9.543-103.484,25.269-91.742,79.258c5.199,23.93,15.605,49.941,39.539,58.262c29.133,9.367,62.43,6.246,82.199-17.688
	c1.449-1.75,2.773-3.605,4.016-5.508C1328.617,765.684,1337.938,729.07,1324.938,705.227z"/>
<path style="fill:#F39DA0;" d="M779.613,672.75c-17.938,3.691-34.238,14.031-44.297,32.477c-13,23.844-3.68,60.457,10.281,81.848
	c1.246,1.902,2.566,3.758,4.016,5.508c19.773,23.934,53.066,27.055,82.203,17.688c23.93-8.32,34.336-34.332,39.543-58.262
	C883.094,698.019,825.93,663.207,779.613,672.75z"/>
<path style="fill:#474146;" d="M1410.629,551.785c-3.785-5.84-7.234-11.895-10.418-18.086c-2.172-4.211-4.258-8.465-6.305-12.738
	c-1.973,9.543-5.23,27.484-5.906,44.578c7.926-2.207,16.094-3.508,24.465-3.801C1412.109,559.445,1411.527,556.082,1410.629,551.785
	z"/>
<path style="fill:#474146;" d="M1341.57,540.504c-4.52-9.996-8.352-20.117-11.902-29.332c-1.543-4-3.043-8.039-4.527-12.094
	c-9.863,18.938-26.969,34.184-39.508,48.688c4.09,32.777,8.609,64.598,26.59,85.867c0,0,0,0,0,0.004l0,0
	c3.504-6.988,7.477-13.656,11.84-19.871c-0.992-1.484-1.207-3.531,0.246-5.25c11.43-13.555,24.516-24.656,38.813-32.652
	c-5.242-5.973-9.793-12.758-13.813-19.926C1346.449,551.238,1343.949,546.125,1341.57,540.504z"/>
<path style="fill:#474146;" d="M1036.172,357.59c-3.965-8.309-3.895-21.699-11.543-27.734
	c-12.824-10.109-27.383,8.344-38.961,29.582c17.309-0.383,35.59,1.172,54.93,4.945c-0.02-0.176-0.043-0.328-0.063-0.5
	C1038.844,362.176,1037.367,360.105,1036.172,357.59z"/>
<path style="fill:#474146;" d="M742.125,586.469c1.262-0.246,2.516-0.574,3.773-0.879c4.148-13.961,5.137-27.711,8.473-38.5
	c-13.922,15.094-30.141,26.305-47.902,33.891c11.715,7.816,22.219,17.879,31.48,29.254c1.578,1.941,1.113,4.262-0.168,5.762
	c4.957,7.348,9.387,15.281,13.144,23.586h0.004c17.965-20.59,25.031-39.766,27.805-58.387
	c-11.039,6.164-22.578,10.945-34.391,13.289C739.105,595.523,736.875,587.512,742.125,586.469z"/>
<path style="fill:#474146;" d="M1111.676,343.996c-9.824,0.582-17.59,10.879-25.098,17.5c12.641-3.645,25.703-3.969,38.809-1.77
	C1122.738,351.68,1118.52,343.598,1111.676,343.996z"/>
<path style="fill:#474146;" d="M1228.719,549.973c-1.656-0.75-3.535-1.445-5.574-2.094c-7.566,8.352-15.633,16.195-24.238,23.516
	c0.02,1.109,0.043,2.219,0.051,3.324c0,0.055,0.012,0.102,0.012,0.156c0,0.328,0,0.656,0,0.988c0,5.359-8.309,5.359-8.309,0
	c0-9.66-0.473-19.41-1.102-29.18c-0.188-1.191-0.367-2.371-0.551-3.535c-1.941-0.012-3.895,0.016-5.848,0.086
	c-8.535,0.309-17.031,1.438-24.625,3.551c-7.332,4.558-15.016,8.683-22.84,13.371c-5.949,7.711-6.977,18.414,0.227,32.805
	c0,0,131.359,22.879,123.609-13.746C1256.641,565.57,1240.414,555.277,1228.719,549.973z"/>
<path style="fill:#474146;" d="M890.523,545.922c-13.051,11.625-28.613,20.168-47.656,23.93c-5.234,1.035-7.469-6.977-2.215-8.016
	c0.625-0.121,1.234-0.266,1.848-0.402c1.453-5.793,2.918-11.563,4.477-17.242c-9.281,1.148-17.52,3.176-23.27,5.781
	c-1.777,0.808-3.656,1.738-5.578,2.769c-6.414,5.563-13.207,11.063-20.305,16.191c-2.375,3.164-4.148,6.594-4.93,10.281
	c-7.754,36.625,123.609,13.746,123.609,13.746C930.305,565.379,913.883,551.363,890.523,545.922z"/>
<path style="fill:#D7D4D5;" d="M1160.48,1420.262c-28.719-27.184-51.531-60.879-78.27-89.984
	c-4.656-5.066-9.434-11.102-15.152-15.043c-1.633-1.129-0.375-1.234-2.543,1.051c-2.977,3.133-5.574,6.582-8.02,10.137
	c-8.855,12.883-16.793,26.449-24.293,40.168c1.395,92.383,2.789,184.762,4.18,277.148c1.395,92.672,2.793,185.336,4.191,278.004
	c0.082,5.363-8.23,5.355-8.313,0c-0.102-6.781-0.203-13.563-0.305-20.344c-1.813-120.441-3.633-240.883-5.449-361.32
	c-0.867-57.582-1.734-115.172-2.602-172.75c-0.039-0.086-0.098-0.156-0.129-0.238c-6.086-17.055-12.344-36.648-23.441-51.152
	c-2.09-2.723-1.57-3.785-3.59-2.27c-2.223,1.656-4.238,3.648-6.203,5.598c-6.547,6.5-12.731,13.359-18.824,20.289
	c-23.605,26.805-46.234,54.512-68.496,82.441c-1.152,1.441-3.563,1.508-5.039,0.652c-8.387-4.867-16.945-9.637-25.391-14.602
	c11.879,77.215,23.758,154.43,35.613,231.652c10.277,66.988,20.559,133.98,30.781,200.977c3.375,22.094,6.742,44.191,10.078,66.289
	c1.301,8.625,3.449,17.578,3.863,26.316c71.41-0.109,143.941-0.785,215.199-1.949c0.609-8.113,2.527-16.383,3.73-24.367
	c3.336-22.098,6.707-44.195,10.078-66.289c10.227-66.996,20.504-133.988,30.789-200.977
	c14.484-94.383,28.992-188.754,43.516-283.129c-28.355,24.168-57.281,47.461-90.926,64.344
	C1163.793,1421.773,1161.91,1421.613,1160.48,1420.262z"/>
<path style="fill:#D7D4D5;" d="M1152.195,1160.695v0.004v0.012l0.109,12.996l0.363,41.273
	c-16.727,18.113-94.641,38.578-122.195,46.008c0.09,0.336,0.148,0.691,0.156,1.086c0.105,6.777,0.207,13.559,0.305,20.344
	c0.34,22.492,0.68,44.984,1.016,67.48c6.668-11.738,13.773-23.289,21.957-33.922c2.82-3.672,8.086-11.27,13.777-9.703
	c4.754,1.305,8.848,6.066,12.16,9.426c29.938,30.367,53.703,66.918,84.32,96.547c44.016-22.738,79.922-56.414,117.488-88.152
	c1.602-1.344,3.465-1.254,4.906-0.461c11.02-10.969,20.758-22.152,28.145-33.121c0.832-1.234,1.648-2.476,2.418-3.703
	c-0.996-1.664-2.023-3.313-3.055-4.965C1271.277,1213.094,1205.391,1160.695,1152.195,1160.695z"/>
<path style="fill:#D7D4D5;" d="M977.234,1321.074c7.832-8.355,18.961-24.117,29.375-10.504c7.121,9.301,12.406,20.453,16.918,31.82
	c-0.406-26.773-0.805-53.551-1.207-80.316c-0.012-0.406,0.047-0.766,0.125-1.105c-27.07-7.445-99.566-27.895-116.273-45.988
	l-2.305-54.164l-0.004-0.105c-53.332,0-98.406,55.301-161.363,136.012c-1.344,1.73-2.688,3.449-4.047,5.195
	c0.746,1.184,1.613,2.402,2.59,3.668c16.512,21.367,64.902,54.641,104.039,79.641c1-1.922,3.184-3.074,5.43-1.434
	c15.316,11.18,32.301,20.43,48.77,29.898C924.391,1382.184,949.676,1350.461,977.234,1321.074z"/>
<path style="fill:#565056;" d="M751.969,537.25c26.473-31.781,41.348-72.809,49.66-112.91c1.086-5.246,9.094-3.02,8.016,2.211
	c-8.848,42.68-25.25,87.945-55.23,120.496c-0.02,0.012-0.031,0.027-0.043,0.043c-3.336,10.789-4.324,24.539-8.473,38.5
	c29.781-7.285,58.113-30.176,79.481-50.598c37.688-36.023,65.227-81.047,77.238-131.98c1.23-5.215,9.242-3.004,8.016,2.211
	c-9.172,38.871-27.34,75.141-52.199,106.219c-4.688,10.047-8.273,21.191-11.457,32.75c-1.559,5.68-3.023,11.449-4.477,17.242
	c35.434-7.832,61.715-37.586,77.227-69.105c19.047-38.699,32.09-80.301,50.594-119.332c7.91-16.688,26.27-61.453,52.063-53.375
	c8.914,2.797,13.504,9.996,16.215,18.586c2.781,8.824,3.973,21.129,13.918,22.305c11.266-71.27,84.355-131.113,152.945-143.414
	c-50.207-22.926-110.141-36.375-180.453-36.375c-53.523,0-100.52,8.211-141.52,22.613
	c-187.777,49.98-234.844,202.332-239.254,361.613c-0.18,6.563-0.281,13.137-0.324,19.723
	C685.773,584.988,724.75,569.918,751.969,537.25z"/>
<path style="fill:#565056;" d="M1208.219,225c-65.055,11.438-137.297,68.41-147.57,136.703c23.027,4.785,35.586-36.23,58.75-24.199
	c10.48,5.438,14.629,21.23,17.074,31.645c6.016,25.602,6.57,52.543,5.086,78.691c-1.574,27.785-5.434,55.344-10.816,82.617
	c-1.66,9.988-3.566,18.906-5.641,26.238c-0.957,4.117-1.941,8.227-2.953,12.324c4.535-3.277,9.063-6.176,13.547-8.863
	c7.824-4.688,15.508-8.813,22.84-13.371c10.223-6.359,19.773-13.617,28.055-24.66c0,5.231,1.129,12.734,2.418,21.023
	c0.184,1.164,0.363,2.344,0.551,3.535c-0.906-14.035-2.148-28.109-2.875-41.992c-1.176-22.5-3.723-44.766-7.184-67.023
	c-5.551-35.773-13.996-78.008-47.539-98.133c-4.59-2.754-0.414-9.941,4.195-7.176c33.738,20.242,44.605,60.957,50.457,97.395
	c3.766,23.441,6.918,46.984,8.156,70.711c1.23,23.465,3.832,47.422,4.137,70.93c8.605-7.32,16.672-15.164,24.238-23.516
	c14.453-15.969,27.012-33.828,37.676-53.574c-6.344-29.48-14.125-58.652-24.789-86.719c-12.336-32.473-33.598-82.406-74.883-83.223
	c-5.355-0.102-5.363-8.418,0-8.313c40.535,0.801,63.703,42.828,77.426,75.602c21.617,51.617,32.594,107.434,41.93,162.41
	c1.594-2.09,3.309-4.188,5.129-6.297c12.539-14.504,29.645-29.75,39.508-48.688c-19.039-52.164-33.863-108.422-66.813-153.586
	c-15.285-20.941-35.863-38.961-62.082-43.715c-34.387-6.242-68.738,8.555-97.863,25.434c-4.648,2.695-8.836-4.488-4.195-7.172
	c40.949-23.738,93.746-41.742,136.953-12.914c47.219,31.504,67.516,93.211,85.664,144.09c9.863,27.645,18.883,55.824,31.227,82.492
	c8.711,18.82,19.523,40.438,38.543,50.719c1.598,0.863,2.16,2.258,2.035,3.629c0.211,0.09,0.402,0.184,0.617,0.273
	c-0.816-4.297-1.219-9.09-1.32-14.105c-0.059-2.836-0.02-5.746,0.094-8.684c0.676-17.094,3.934-35.035,5.906-44.578
	c-27.258-56.973-44.48-118.684-79.047-172.098c-17.699-27.352-40.414-53.418-71.012-66.465
	c-36.16-15.426-75.523-9.266-111.168,4.473c-5.008,1.93-7.156-6.109-2.211-8.016c20.176-7.773,41.578-13.547,63.324-13.988
	c70.512-1.434,116.242,52.965,146.008,110.762c16.09,31.23,28.961,63.934,42.168,96.449c10.68,26.281,21.16,53.57,37.012,77.305
	c0.34-173.258-74.355-285.898-180.09-322.356c-8.75-3.02-17.172-4.98-25.289-6.07c-0.922-0.453-1.863-0.883-2.793-1.324
	C1211.754,221.773,1211.156,224.488,1208.219,225z"/>
<path style="fill:#3D1C10;" d="M1635.414,1343.203c-0.207,0.469-0.422,0.934-0.633,1.398
	c-37.238,81.738-74.473,163.473-111.715,245.207c-2.203,4.844,4.957,9.066,7.18,4.199c37.453-82.203,74.898-164.406,112.352-246.605
	c0.215-0.477,0.316-0.945,0.371-1.402c0.004-0.059,0.02-0.121,0.02-0.184C1643.25,1341.73,1637.391,1338.875,1635.414,1343.203z"/>
<path style="fill:#3D1C10;" d="M1286.559,1323.633c-1.441-0.793-3.305-0.883-4.906,0.461
	c-37.566,31.738-73.473,65.414-117.488,88.152c-30.617-29.629-54.383-66.18-84.32-96.547c-3.313-3.359-7.406-8.121-12.16-9.426
	c-5.691-1.566-10.957,6.031-13.777,9.703c-8.184,10.633-15.289,22.184-21.957,33.922c-0.336-22.496-0.676-44.988-1.016-67.48
	c-0.098-6.785-0.199-13.566-0.305-20.344c-0.008-0.395-0.066-0.75-0.156-1.086c-1.02-3.895-7.102-3.902-8.027-0.02
	c-0.078,0.34-0.137,0.699-0.125,1.105c0.402,26.766,0.801,53.543,1.207,80.316c-4.512-11.367-9.797-22.52-16.918-31.82
	c-10.414-13.613-21.543,2.148-29.375,10.504c-27.559,29.387-52.844,61.109-77.953,92.617c-16.469-9.469-33.453-18.719-48.77-29.898
	c-2.246-1.641-4.43-0.488-5.43,1.434c-0.926,1.785-0.828,4.23,1.234,5.742c5.566,4.063,11.363,7.863,17.269,11.52
	c12.277,79.805,24.551,159.605,36.805,239.422c10.195,66.434,20.391,132.875,30.531,199.324
	c3.359,21.996,6.711,43.988,10.031,65.988c0.984,6.496,1.965,12.988,2.93,19.488c0.332,2.266,0.93,6.465,0.941,6.582
	c0,0.051,0.016,0.098,0.02,0.152c0.414,5.176,8.539,5.156,8.293-0.152c0-0.004-0.008-0.008-0.008-0.012
	c-0.414-8.738-2.563-17.691-3.863-26.316c-3.336-22.098-6.703-44.195-10.078-66.289c-10.223-66.996-20.504-133.988-30.781-200.977
	c-11.855-77.223-23.734-154.438-35.613-231.652c8.445,4.965,17.004,9.734,25.391,14.602c1.477,0.855,3.887,0.789,5.039-0.652
	c22.262-27.93,44.891-55.637,68.496-82.441c6.094-6.93,12.277-13.789,18.824-20.289c1.965-1.949,3.98-3.941,6.203-5.598
	c2.019-1.516,1.5-0.453,3.59,2.27c11.098,14.504,17.356,34.098,23.441,51.152c0.031,0.082,0.09,0.152,0.129,0.238
	c0.867,57.578,1.734,115.168,2.602,172.75c1.816,120.438,3.637,240.879,5.449,361.32c0.102,6.781,0.203,13.563,0.305,20.344
	c0.082,5.355,8.395,5.363,8.313,0c-1.398-92.668-2.797-185.332-4.191-278.004c-1.391-92.387-2.785-184.766-4.18-277.148
	c7.5-13.719,15.438-27.285,24.293-40.168c2.445-3.555,5.043-7.004,8.02-10.137c2.168-2.285,0.91-2.18,2.543-1.051
	c5.719,3.941,10.496,9.977,15.152,15.043c26.738,29.105,49.551,62.801,78.27,89.984c1.43,1.352,3.313,1.512,5.035,0.652
	c33.645-16.883,62.57-40.176,90.926-64.344c-14.523,94.375-29.031,188.746-43.516,283.129
	c-10.285,66.988-20.563,133.98-30.789,200.977c-3.371,22.094-6.742,44.191-10.078,66.289c-1.203,7.984-3.121,16.254-3.73,24.367
	c-0.047,0.652-0.105,1.309-0.133,1.961c-0.254,5.309,7.875,5.328,8.285,0.152c0.004-0.055,0.02-0.102,0.023-0.152
	c0.008-0.117,0.609-4.316,0.941-6.582c0.961-6.5,1.938-12.992,2.922-19.488c3.406-22.551,6.848-45.102,10.293-67.648
	c10.277-67.355,20.613-134.703,30.949-202.051c14.73-95.949,29.477-191.895,44.246-287.832c0.063-0.418,0.059-0.813,0.012-1.188
	c7.211-6.191,14.41-12.398,21.672-18.535C1290.031,1327.867,1288.813,1324.879,1286.559,1323.633z"/>
<path style="fill:#3D1C10;" d="M1436.324,1586.5c-8.969-92.926-17.934-185.852-26.906-278.773c-0.02-0.227-0.043-0.453-0.063-0.676
	c-0.176-1.801-1.129-3.566-3.051-4.004c-30.746-7.074-61.488-14.137-92.238-21.203c1.031,1.652,2.059,3.301,3.055,4.965
	c-0.77,1.227-1.586,2.469-2.418,3.703c28.887,6.641,57.777,13.281,86.668,19.922c8.703,90.168,17.398,180.336,26.098,270.504
	c-12.145-3.266-24.289-6.523-36.441-9.789c-17.699-17.047-35.398-34.105-53.098-51.156c-3.855-3.719-9.742,2.156-5.879,5.879
	c17.977,17.316,35.957,34.637,53.93,51.957c8.672,9.656,17.348,19.309,26.016,28.961c4.766,5.301,9.531,10.602,14.297,15.906
	c0.406,0.453,0.813,0.906,1.227,1.363c-4.906,16.418-9.805,32.84-14.711,49.258c-19.629,65.754-39.258,131.508-58.887,197.258
	c-6.457,21.633-12.914,43.27-19.375,64.902c-0.113,0.387-0.156,0.746-0.176,1.098c-0.18,4.336,6.777,5.855,8.195,1.113
	c0.105-0.367,0.219-0.746,0.328-1.121c30.234-101.27,60.469-202.539,90.699-303.813c2.598-8.695,3.293-10.684-3.18-17.891
	c-9.68-10.773-19.363-21.551-29.047-32.328c9.898,2.66,19.793,5.313,29.695,7.969
	C1433.477,1591.152,1436.586,1589.242,1436.324,1586.5z"/>
<path style="fill:#3D1C10;" d="M527.727,1470.176c-11.164-38.105-21.984-76.516-30.437-115.34c-0.016-0.059-0.039-0.102-0.055-0.152
	c-1.281-5.016-9.09-2.797-7.965,2.367c0.02,0.078,0.039,0.16,0.059,0.238c8.445,38.742,19.289,77.047,30.383,115.094
	c16.723,57.363,35.258,114.379,58,169.664c2.008,4.883,10.055,2.746,8.012-2.211C562.98,1584.543,544.519,1527.523,527.727,1470.176
	z"/>
<path style="fill:#3D1C10;" d="M783.391,1519.992c-17.695,17.051-35.394,34.109-53.094,51.156
	c-12.148,3.266-24.297,6.523-36.445,9.789c8.703-90.168,17.398-180.336,26.102-270.504c7.031-1.617,14.063-3.234,21.09-4.848
	c-0.977-1.266-1.844-2.484-2.59-3.668c1.359-1.746,2.703-3.465,4.047-5.195c-9.16,2.109-18.316,4.215-27.484,6.324
	c-1.914,0.438-2.871,2.203-3.047,4.004c-0.027,0.273-0.051,0.539-0.078,0.809c-8.965,92.883-17.926,185.758-26.887,278.641
	c-0.262,2.742,2.844,4.652,5.258,4.004c9.902-2.656,19.797-5.309,29.695-7.969c-5.5,6.129-11.004,12.246-16.504,18.375
	c-4.766,5.301-9.531,10.602-14.297,15.902c-1.773,1.977-4.883,4.383-3.981,7.387c4.328,14.496,8.652,28.984,12.981,43.48
	c19.516,65.383,39.035,130.762,58.555,196.145c7.242,24.246,14.477,48.496,21.715,72.742c0.113,0.375,0.227,0.754,0.34,1.121
	c1.41,4.742,8.375,3.223,8.188-1.113c-0.016-0.352-0.063-0.711-0.176-1.098c-30.344-101.641-60.691-203.285-91.035-304.934
	c-0.641-2.164-1.289-4.32-1.934-6.484c1.684-1.871,3.367-3.746,5.047-5.617c12.16-13.539,24.324-27.074,36.488-40.613
	c17.973-17.32,35.949-34.641,53.93-51.957C793.137,1522.148,787.25,1516.273,783.391,1519.992z"/>
<path style="fill:#3D1C10;" d="M1354.391,679.547c22.27-24.98,51.258-45.316,73.441-19.535c3.496,4.07,9.352-1.836,5.875-5.879
	c-23.992-27.883-54.023-11.551-78.285,12.68C1355.141,671.055,1354.797,675.297,1354.391,679.547z"/>
<path style="fill:#3D1C10;" d="M695.008,658.68c3.344,3.566,6.426,7.371,9.387,11.277c-0.199-4.32-0.344-8.668-0.418-13.051
	c-19.707-22.496-43.672-34.988-69.645-7.246c-3.66,3.906,2.207,9.793,5.875,5.875c8.004-8.543,17.672-15.906,29.996-13.68
	C680.191,643.66,688.348,651.578,695.008,658.68z"/>
<path style="fill:#3D1C10;" d="M642.242,592.992c19.074,0.332,37.461-2.387,54.594-8.269c13.305,7.805,24.988,18.808,35.238,31.394
	c1.793,2.203,4.262,1.57,5.707-0.121c1.281-1.5,1.746-3.82,0.168-5.762c-9.262-11.375-19.766-21.438-31.48-29.254
	c17.762-7.586,33.98-18.797,47.902-33.891c0.012-0.016,0.023-0.031,0.043-0.043c29.98-32.551,46.383-77.816,55.23-120.496
	c1.078-5.23-6.93-7.457-8.016-2.211c-8.313,40.102-23.188,81.129-49.66,112.91c-27.219,32.668-66.195,47.738-108.059,47.422
	c-0.555-0.008-1.105,0.016-1.668,0.008C636.879,584.586,636.891,592.898,642.242,592.992z"/>
<path style="fill:#3D1C10;" d="M1452.305,567.852c-13.539-4.625-26.832-6.543-39.676-6.117c-0.051,0.004-0.109,0.004-0.164,0.004
	c-8.371,0.293-16.539,1.594-24.465,3.801c-0.113,2.938-0.152,5.848-0.094,8.684c19.273-5.871,40.246-5.852,62.191,1.644
	c0.387,0.133,0.758,0.191,1.113,0.215C1455.465,576.383,1456.957,569.441,1452.305,567.852z"/>
<path style="fill:#3D1C10;" d="M1124.223,801.82c4.723-2.547,0.523-9.719-4.195-7.18c-52.984,28.563-126.73,28.57-179.719,0
	c-4.719-2.543-8.918,4.633-4.195,7.18C991.742,831.813,1068.594,831.805,1124.223,801.82z"/>
<path style="fill:#3D1C10;" d="M878.344,654.559c3.512-5.949,2.188-14.109-2.348-19.074c-5.66-6.199-15.285-3.688-20.152,2.031
	c-0.273,0.266-0.531,0.566-0.754,0.949c-0.328,0.465-0.523,0.922-0.637,1.375c-2.848,6.25-1.586,14.238,3.965,18.633
	C864.883,663.582,874.238,661.512,878.344,654.559z"/>
<path style="fill:#3D1C10;" d="M1175.082,637.516c-0.273,0.266-0.531,0.566-0.75,0.949c-0.336,0.465-0.527,0.922-0.645,1.375
	c-2.848,6.25-1.582,14.238,3.969,18.633c6.465,5.109,15.816,3.039,19.926-3.914c3.512-5.949,2.188-14.109-2.348-19.074
	C1189.57,629.285,1179.949,631.797,1175.082,637.516z"/>
<path style="fill:#3D1C10;" d="M1037.914,694.699c4.445,3.035,8.594-4.172,4.195-7.176c-15.816-10.816-40.215-0.207-33.891,20.863
	c3.863,12.879,20.375,14.48,31.543,12.508c5.277-0.934,3.031-8.941-2.207-8.016c-4.988,0.883-14.164,0.941-19.051-3.332
	c-4.59-4.016-3.594-11.59,0.434-15.5C1024.121,689.012,1032.699,691.137,1037.914,694.699z"/>
<path style="fill:#3D1C10;" d="M1272.914,895.019c1.797-2.172,0.992-4.84-0.668-6.266c-1.465-1.262-3.602-1.551-5.215,0.387
	c-61.172,73.621-158.238,96.305-250.129,96.563c-1.523,0.008-2.598,0.688-3.258,1.648c-1.66,2.426-0.586,6.676,3.258,6.664
	c44.113-0.125,89.484-5.383,131.676-18.719h0.004C1196.203,960.242,1239.773,934.902,1272.914,895.019z"/>
<path style="fill:#3D1C10;" d="M1009.262,1348.328c-5.473-3-11.762-0.961-14.406,4.695c-0.094,0.195-0.156,0.391-0.227,0.59
	c-0.066,0.133-0.133,0.258-0.191,0.406c-2.887,7.152,0.258,14.742,7.871,16.883c6.957,1.961,13.977-2.891,14.715-9.922
	C1017.559,1355.859,1013.512,1350.668,1009.262,1348.328z"/>
<path style="fill:#3D1C10;" d="M1009.262,1547.57c-5.473-3.004-11.762-0.965-14.406,4.695c-0.094,0.188-0.156,0.387-0.227,0.586
	c-0.066,0.133-0.133,0.262-0.191,0.406c-2.887,7.152,0.25,14.742,7.871,16.887c6.957,1.953,13.977-2.895,14.715-9.918
	C1017.559,1555.098,1013.512,1549.902,1009.262,1547.57z"/>
<path style="fill:#3D1C10;" d="M1009.262,1725.25c-5.473-3-11.762-0.957-14.406,4.699c-0.094,0.188-0.156,0.383-0.227,0.582
	c-0.066,0.137-0.133,0.266-0.191,0.406c-2.887,7.156,0.25,14.746,7.871,16.891c6.957,1.953,13.977-2.895,14.715-9.922
	C1017.559,1732.785,1013.512,1727.586,1009.262,1725.25z"/>
<path style="fill:#3D1C10;" d="M1009.262,1902.938c-5.473-3.008-11.762-0.961-14.406,4.691c-0.094,0.195-0.156,0.395-0.227,0.59
	c-0.066,0.137-0.133,0.262-0.191,0.402c-2.887,7.152,0.258,14.742,7.871,16.887c6.957,1.961,13.977-2.895,14.715-9.918
	C1017.559,1910.469,1013.512,1905.27,1009.262,1902.938z"/>
<path style="fill:#3D1C10;" d="M604.086,1817.41c0.086,34.758,2.086,69.566,3.863,104.273c0.266,5.332,8.578,5.359,8.313,0
	c-1.781-34.707-3.777-69.516-3.863-104.273C612.383,1812.051,604.07,1812.051,604.086,1817.41z"/>
<path style="fill:#3D1C10;" d="M1469.891,1817.41c0,38.629,0,77.254,0,115.883c0,0.395,0.055,0.758,0.141,1.094
	c0.996,3.984,7.359,3.887,8.09-0.293c0.043-0.254,0.082-0.516,0.082-0.801c0-38.629,0-77.254,0-115.883
	C1478.203,1812.051,1469.891,1812.051,1469.891,1817.41z"/>
<path style="fill:#3D1C10;" d="M969.988,1291.426c5.172,1.457,7.359-6.563,2.211-8.012c-26.539-7.477-49.871-23.98-67.035-45.438
	c-13.48-16.852-29.914-41.609-27.648-64.16c0.535-5.324-7.785-5.277-8.316,0c-2.418,24.102,14.441,49.816,28.473,67.949
	C915.875,1265.289,941.273,1283.344,969.988,1291.426z"/>
<path style="fill:#3D1C10;" d="M1071.535,1289.762c-4.953,1.895-2.805,9.934,2.207,8.016c29.984-11.449,55.477-32.984,75.758-57.551
	c15.09-18.266,32.996-46.031,24.246-70.684c-1.777-5.02-9.805-2.859-8.012,2.211c7.988,22.512-9.988,47.918-23.68,64.496
	C1123.332,1258.918,1099.184,1279.199,1071.535,1289.762z"/>
<path style="fill:#3D1C10;" d="M858.434,511.441c24.859-31.078,43.027-67.348,52.199-106.219c1.227-5.215-6.785-7.426-8.016-2.211
	c-12.012,50.934-39.551,95.957-77.238,131.98c-21.367,20.422-49.699,43.313-79.481,50.598c-1.258,0.305-2.512,0.633-3.773,0.879
	c-5.25,1.043-3.02,9.055,2.219,8.016c11.813-2.344,23.351-7.125,34.391-13.289c6.559-3.664,12.934-7.816,19.09-12.262
	c7.098-5.129,13.891-10.629,20.305-16.191c4.57-3.969,8.965-7.969,13.125-11.871C841.008,531.715,850.098,521.867,858.434,511.441z"
	/>
<path style="fill:#3D1C10;" d="M1198.906,571.394c-0.305-23.508-2.906-47.465-4.137-70.93c-1.238-23.727-4.391-47.27-8.156-70.711
	c-5.852-36.438-16.719-77.152-50.457-97.395c-4.609-2.766-8.785,4.422-4.195,7.176c33.543,20.125,41.988,62.359,47.539,98.133
	c3.461,22.258,6.008,44.523,7.184,67.023c0.727,13.883,1.969,27.957,2.875,41.992c0.629,9.77,1.102,19.52,1.102,29.18
	c0,5.359,8.309,5.359,8.309,0c0-0.332,0-0.66,0-0.988c0-0.055-0.012-0.102-0.012-0.156
	C1198.949,573.613,1198.926,572.504,1198.906,571.394z"/>
<path style="fill:#3D1C10;" d="M1280.93,556.527c-0.137-0.82-0.285-1.644-0.426-2.465c-9.336-54.977-20.313-110.793-41.93-162.41
	c-13.723-32.773-36.891-74.801-77.426-75.602c-5.363-0.105-5.355,8.211,0,8.313c41.285,0.816,62.547,50.75,74.883,83.223
	c10.664,28.066,18.445,57.238,24.789,86.719c4.613,21.414,8.469,42.996,12.094,64.434
	C1273.805,564.016,1281.816,561.769,1280.93,556.527z"/>
<path style="fill:#3D1C10;" d="M1386.574,584.426c-19.02-10.281-29.832-31.898-38.543-50.719
	c-12.344-26.668-21.363-54.848-31.227-82.492c-18.148-50.879-38.445-112.586-85.664-144.09
	c-43.207-28.828-96.004-10.824-136.953,12.914c-4.641,2.684-0.453,9.867,4.195,7.172c29.125-16.879,63.477-31.676,97.863-25.434
	c26.219,4.754,46.797,22.773,62.082,43.715c32.949,45.164,47.773,101.422,66.813,153.586c1.484,4.055,2.984,8.094,4.527,12.094
	c3.551,9.215,7.383,19.336,11.902,29.332c2.367,5.23,4.922,10.426,7.738,15.434c4.02,7.168,8.57,13.953,13.813,19.926
	c-14.297,7.996-27.383,19.098-38.813,32.652c-1.453,1.719-1.238,3.766-0.246,5.25c1.348,2.023,4.125,2.996,6.129,0.625
	c11.5-13.641,24.613-24.684,38.957-32.344c4.02,3.703,8.402,6.945,13.234,9.555c3.113,1.684,5.988-0.879,6.227-3.547
	C1388.734,586.684,1388.172,585.289,1386.574,584.426z"/>
<path style="fill:#3D1C10;" d="M1130.469,278.855c-4.945,1.906-2.797,9.945,2.211,8.016c35.645-13.738,75.008-19.898,111.168-4.473
	c30.598,13.047,53.313,39.113,71.012,66.465c34.566,53.414,51.789,115.125,79.047,172.098c2.047,4.273,4.133,8.527,6.305,12.738
	c3.184,6.191,6.633,12.246,10.418,18.086c0.691,1.066,1.398,2.121,2.113,3.176c0.336,0.492,0.652,0.996,0.988,1.484
	c3.035,4.367,10.246,0.219,7.184-4.195c-0.66-0.945-1.297-1.91-1.934-2.867c-15.852-23.734-26.332-51.023-37.012-77.305
	c-13.207-32.516-26.078-65.219-42.168-96.449c-29.766-57.797-75.496-112.195-146.008-110.762
	C1172.047,265.309,1150.645,271.082,1130.469,278.855z"/>
<path style="fill:#3D1C10;" d="M965.281,404.32c2.422-5.629,10.27-26.32,20.387-44.883c11.578-21.238,26.137-39.691,38.961-29.582
	c7.648,6.035,7.578,19.426,11.543,27.734c1.195,2.516,2.672,4.586,4.363,6.293c0.191,0.195,0.387,0.391,0.586,0.578
	c0.004,0.008,0.008,0.008,0.012,0.016c3.695,3.395,8.461,4.941,14.301,4.391c10.121,3.824,19.383,1.32,28.023-4.855
	c1.039-0.742,2.078-1.598,3.121-2.516c7.508-6.621,15.273-16.918,25.098-17.5c6.844-0.398,11.063,7.684,13.711,15.73
	c1.707,5.156,2.758,10.297,3.434,13.18c5.727,24.348,5.672,50.105,4.426,74.934c-2.109,42-10.148,83.602-20.438,124.289
	c-1.316,5.199,6.699,7.402,8.012,2.211c0.449-1.773,0.887-3.547,1.328-5.32c1.012-4.098,1.996-8.207,2.953-12.324
	c2.023-8.715,3.906-17.461,5.641-26.238c5.383-27.273,9.242-54.832,10.816-82.617c1.484-26.148,0.93-53.09-5.086-78.691
	c-2.445-10.414-6.594-26.207-17.074-31.645c-23.164-12.031-35.723,28.984-58.75,24.199c10.273-68.293,82.516-125.266,147.57-136.703
	c2.938-0.512,3.535-3.227,2.59-5.367c-0.75-1.707-2.48-3.055-4.797-2.645c-0.188,0.031-0.367,0.074-0.551,0.109
	c-68.59,12.301-141.68,72.144-152.945,143.414c-9.945-1.176-11.137-13.48-13.918-22.305c-2.711-8.59-7.301-15.789-16.215-18.586
	c-25.793-8.078-44.152,36.688-52.063,53.375c-18.504,39.031-31.547,80.633-50.594,119.332
	c-15.512,31.52-41.793,61.274-77.227,69.105c-0.613,0.137-1.223,0.281-1.848,0.402c-5.254,1.039-3.02,9.051,2.215,8.016
	c19.043-3.762,34.605-12.305,47.656-23.93C929.375,511.313,945.91,449.336,965.281,404.32z"/>
<path style="fill:#3D1C10;" d="M989.336,273.688c-39.5,8.715-50.578,44.922-63.746,78.391c-1.965,4.996,6.074,7.141,8.012,2.211
	c11.027-28.02,19.461-60.313,51.246-70.762c21.348-7.02,59.766-9.164,69.645,16.57c1.902,4.953,9.941,2.805,8.02-2.207
	C1051.426,269.008,1015.117,268,989.336,273.688z"/>
<path style="fill:#3D1C10;" d="M830.148,390.414c17.848-61.688,52.02-129.715,114.844-155.699
	c48.719-20.148,99.184-1.387,131.098,38.481c3.348,4.188,9.195-1.734,5.879-5.879c-33.473-41.809-86.066-60.598-137.238-41.383
	c-67.035,25.172-103.918,97.707-122.594,162.273C820.641,393.367,828.664,395.555,830.148,390.414z"/>
<path style="fill:#3D1C10;" d="M663.965,540.926c45.617-33.227,67.551-85.734,87.461-136.645
	c20.434-52.23,40.746-110.379,89.855-142.641c4.465-2.926,0.305-10.129-4.188-7.172c-98.309,64.57-83.234,210.746-177.324,279.277
	C655.48,536.871,659.621,544.086,663.965,540.926z"/>
<path style="fill:#3D1C10;" d="M1064.168,197.785c21.813,8.582,34.391,28.035,39.207,50.293c1.141,5.234,9.156,3.016,8.02-2.211
	c-5.496-25.352-20.477-46.445-45.02-56.102C1061.387,187.801,1059.242,195.844,1064.168,197.785z"/>
</svg>
