<?xml version="1.0" encoding="utf-8"?>
<!-- Generator: Adobe Illustrator 27.5.0, SVG Export Plug-In . SVG Version: 6.00 Build 0)  -->
<svg version="1.1" id="Capa_1" xmlns="http://www.w3.org/2000/svg" xmlns:xlink="http://www.w3.org/1999/xlink" x="0px" y="0px"
	 viewBox="0 0 2122 2122" style="enable-background:new 0 0 2122 2122;" xml:space="preserve">
<path style="fill:#FACABB;" d="M1183.198,1109.296c-0.448-30.76-0.716-59.425-0.796-84.139l0,0
	C1182.479,1049.863,1182.75,1078.543,1183.198,1109.296z"/>
<path style="fill:#FACABB;" d="M1700.41,1394.287c-1.693-0.694-3.483-1.381-5.325-2.068
	C1696.926,1392.905,1698.717,1393.592,1700.41,1394.287z"/>
<path style="fill:#FACABB;" d="M1656.147,1380.888c-5.335-1.257-10.933-2.49-16.78-3.698
	C1645.212,1378.399,1650.812,1379.631,1656.147,1380.888z"/>
<path style="fill:#F3A0AD;" d="M1700.41,1394.287c-1.693-0.694-3.483-1.381-5.325-2.068c-0.475-0.178-0.965-0.356-1.452-0.531
	c-1.627-0.59-3.296-1.177-5.03-1.759c-0.285-0.095-0.562-0.195-0.853-0.29c-2.039-0.677-4.158-1.347-6.339-2.012
	c-0.438-0.136-0.894-0.268-1.342-0.404c-1.883-0.565-3.815-1.126-5.8-1.681c-0.436-0.122-0.865-0.246-1.303-0.37
	c-2.387-0.66-4.838-1.313-7.362-1.963c-0.263-0.066-0.534-0.132-0.797-0.2c-2.287-0.582-4.636-1.159-7.033-1.732
	c-0.541-0.129-1.082-0.258-1.627-0.388c-5.335-1.257-10.936-2.49-16.78-3.698c-0.312-0.063-0.602-0.132-0.911-0.195
	c-0.005,0-0.008,0.002-0.01,0.007c-60.553,31.735-123.671,58.943-189.001,79.133c-62.419,19.289-126.821,32.358-191.532,41.053
	c-129.836,17.447-262.881,16.053-392.128-5.618c-116.18-19.481-230.363-55.498-333.551-112.725c-0.003,0-0.003,0-0.003,0
	c-0.923,0.222-1.817,0.448-2.728,0.672c-1.676,0.417-3.333,0.833-4.97,1.255c-1.172,0.302-2.348,0.602-3.501,0.906
	c-1.004,0.265-1.985,0.536-2.974,0.804c-0.989,0.27-1.978,0.538-2.953,0.809c-0.974,0.27-1.937,0.543-2.894,0.816
	c-0.979,0.283-1.944,0.563-2.909,0.848c-0.911,0.265-1.822,0.531-2.719,0.801c-1.152,0.348-2.285,0.699-3.415,1.05
	c-1.011,0.316-2.017,0.633-3.008,0.95c-1.322,0.423-2.638,0.85-3.922,1.281c-0.731,0.244-1.442,0.493-2.158,0.736
	c-1.001,0.343-1.998,0.69-2.977,1.038c-0.714,0.254-1.418,0.507-2.119,0.76c-1.001,0.366-1.986,0.731-2.957,1.099
	c-0.619,0.234-1.24,0.465-1.846,0.699c-1.34,0.516-2.648,1.038-3.934,1.562c-0.27,0.109-0.546,0.217-0.814,0.329
	c-1.415,0.585-2.794,1.174-4.148,1.769c-0.475,0.207-0.933,0.417-1.403,0.626c-0.962,0.433-1.912,0.867-2.84,1.303
	c-0.485,0.232-0.969,0.461-1.445,0.69c-0.931,0.448-1.834,0.896-2.728,1.349c-0.405,0.207-0.814,0.411-1.213,0.616
	c-1.259,0.655-2.492,1.313-3.676,1.978c-166.073,93.269-195.517,488.542-195.264,542.793c0.3,64.404,868.985,61.929,1334.535,38.519
	c-0.154-0.455-0.258-0.943-0.263-1.506c-0.173-36.923-4.078-73.705-4.253-110.628c-0.029-5.905,9.128-5.902,9.159,0
	c0.173,36.923,4.078,73.705,4.251,110.628c0.005,0.378-0.034,0.728-0.1,1.057c165.629-8.516,278.048-19.703,278.038-31.425
	C1888.061,1925.535,1869.798,1463.85,1700.41,1394.287z"/>
<path style="fill:#87ACDB;" d="M787.752,382.184c1.796,14.429,8.665,31.757,25.018,34.193c13.525,2.015,26.687-6.672,33.944-17.593
	c18.497-27.844,19.167-73.384-15.727-88.114c-9.376-3.956-19.52-5.932-29.927-6.453c-0.972,2.816-1.9,5.649-2.767,8.504
	C791.681,334.518,784.899,359.236,787.752,382.184z"/>
<path style="fill:#87ACDB;" d="M1322.399,226.201c15.866,20.049,29.564,43.941,39.344,69.225
	c37.561,0.862,80.894,15.31,110.604,41.605c7.576-6.346,15.868-11.73,24.648-15.864c-75.679-92.624-173.194-167.301-324.214-188.789
	C1230.881,147.5,1284.114,177.817,1322.399,226.201z"/>
<path style="fill:#87ACDB;" d="M562.598,1008.994c-16.073-45.586-59.851,3.133-76.336,23.043
	c-21.693,26.195-41.846,54.792-52.178,87.383c27.157-7.81,53.639-18.455,77.683-32.704
	C537.304,1071.585,574.851,1043.742,562.598,1008.994z"/>
<path style="fill:#87ACDB;" d="M761.065,299.49c10.453-2.268,21.978-3.976,33.544-4.237c3.065-8.253,6.502-16.37,10.424-24.265
	c33.722-67.871,93.303-111.937,162.061-133.829c-137.546,28.083-230.65,105.973-297.882,190.416
	c4.806,2.926,9.41,6.217,13.778,9.876C704.902,318.33,733.087,305.563,761.065,299.49z"/>
<path style="fill:#87ACDB;" d="M1303.914,327.141c-16.619,26.236-5.559,86.872,31.878,89.393
	c19.734,1.325,30.404-16.58,32.002-34.351c2.319-25.79-4.539-53.366-13.235-77.783
	C1334.413,304.878,1314.499,310.435,1303.914,327.141z"/>
<path style="fill:#87ACDB;" d="M1590.771,1038.784c-9.04-10.217-23.937-21.88-28.899-1.846c-5.968,24.098-2.57,51.135,8.358,73.308
	c13.659,27.715,34.46,52.322,58.575,73.001c0.965-18.29,1.452-36.899-0.577-54.775
	C1624.683,1097.184,1611.865,1062.638,1590.771,1038.784z"/>
<path style="fill:#87ACDB;" d="M666.861,442.912c7.939,7.975,19.652,11.179,30.375,7.147c38.806-14.589,11.269-68.826-4.497-89.737
	c-2.894-3.834-6.007-7.384-9.306-10.66c-12.268,12.217-21.435,27.106-24.921,45.177
	C655.506,410.408,654.675,430.669,666.861,442.912z"/>
<path style="fill:#87ACDB;" d="M1838.794,839.907c-82.499-91.395-117.702-162.404-185.595-278.594
	c-13.954,17.752-31.491,33.001-51.664,45.345c-5.055,3.091-9.652-4.831-4.624-7.905c43.586-26.677,77.086-69.478,81.579-121.695
	c3.747-43.547-6.948-93.342-40.93-123.278c-30.03-26.458-73.708-40.45-113.393-31.881c-16.526,3.567-31.873,11.213-44.943,21.732
	c17.303,17.81,28.567,40.256,28.831,66.94c0.239,24.28-13.839,52.855-42.241,50.297c-26.719-2.409-39.459-27.805-35.401-52.533
	c3.966-24.168,16.955-47.476,35.084-65.12c-20.699-17.74-47.605-29.284-73.447-34.891c-7.987-1.737-17.32-3.203-26.965-3.742
	c7.094,20.611,11.515,41.934,12.232,62.716c0.592,17.167-1.89,39.103-16.65,50.516c-10.862,8.402-24.46,10.285-37.167,4.765
	c-30.524-13.254-44.09-58.458-33.064-88.548c9.481-25.876,34.994-36.807,60.804-38.431c-18.612-47.479-50.923-88.916-93.847-116.882
	c-46.753-30.455-101.081-45.184-156.477-48.243c-2.662-0.149-4.112-2.114-4.363-4.19c-5.213-0.112-10.473-0.178-15.798-0.178
	c-7.366,0-14.616,0.141-21.778,0.39c-0.322,1.995-1.771,3.837-4.349,3.978c-89.461,4.943-179.254,42.729-228.214,121.038
	c-8.713,13.929-16.17,28.613-22.117,43.912c16.404,0.887,32.339,5.196,44.865,15.601c25.143,20.887,23.924,62.389,7.886,88.579
	c-14.953,24.409-51.99,39.174-70.131,8.997c-11.349-18.872-9.793-42.132-5.985-62.958c2.567-14.049,6.061-27.951,10.562-41.513
	c-21.746,0.714-44.002,7.177-62.426,15.46c-13.971,6.28-27.595,14.212-39.179,24.117c6.846,6.741,13.011,14.466,18.356,23.15
	c14.948,24.283,29.766,64.082,2.519,85.924c-17.903,14.353-45.354,8.675-56.375-11.422c-15.586-28.426-4.426-68.08,15.869-91.267
	c2.007-2.292,4.126-4.487,6.292-6.635c-4.064-3.333-8.358-6.285-12.828-8.897c-0.024,0.029-0.046,0.061-0.071,0.09
	c-0.18-0.149-0.358-0.302-0.538-0.446c-30.26-17.42-68.713-18.731-102.319-6.015c-52.679,19.932-81.144,66.594-84.138,121.983
	c-3.405,62.969,28.928,116.112,81.983,148.582c5.028,3.074,0.429,10.996-4.623,7.905c-14.385-8.802-27.847-19.269-39.654-31.252
	c-4.478,6.136-8.86,11.479-13.193,15.917c-12.699,12.996-25.508,24.743-38.319,35.542c1.406,1.985,1.51,5.055-1.094,6.806
	c-5.082,3.415-10.178,6.804-15.335,10.107c-9.113,5.839-18.37,11.469-27.673,17.036c-36.719,26.007-72.312,46.689-103.997,68.891
	c-0.054,0.046-0.11,0.09-0.164,0.136c-42.17,36.012-84.519,79.586-102.794,133.106c-29.023,85.028-11.094,197.927,70.185,248.53
	c17.174,10.694,37.712,20.658,58.234,21.932c17.093,1.06,34.377-0.908,51.174-3.995c10.736-1.971,21.505-4.336,32.21-7.113
	c1.856-6.551,4.041-13.05,6.655-19.459c13.011-31.873,34.624-61.405,57.715-86.709c15.803-17.315,51.169-53.445,74.37-26.711
	c20.943,24.134,10.621,57.277-9.554,77.7c-27.561,27.893-66.173,44.743-102.906,56.76c-6.093,1.99-12.331,3.951-18.67,5.815
	c-0.173,0.718-0.38,1.425-0.545,2.146c-11.398,49.547-2.595,102.263,22.631,146.292c9.854,17.201,22.097,33.52,36.329,47.795
	c23.628,20.821,51.333,36.509,79.798,44.984c32.455-6.12,69.71-11.338,110.526-15.691c4.47-2.743,8.857-5.717,13.145-8.943
	c2.229-1.678,4.409-0.782,5.613,0.994c14.565-13.188,27.108-30.872,36.609-53.754c6.205,19.432,15.423,37.639,27.009,54.39
	c62.821-4.587,131.02-7.542,201.152-8.989c-3.07-92.887-4.594-223.083-5.333-314.543
	c-118.935-31.824-204.428-112.497-241.863-223.743c-10.08,3.471-21.878,5.305-35.64,5.032
	c-76.418-1.53-134.248-116.406-114.811-183.334c11.786-35.625,38.321-49.99,67.807-50.049c0.643-0.414,1.42-0.689,2.363-0.716
	c37.181-1.038,67.554,17.963,91.232,44.826c11.676-3.959,23.415-8.699,35.152-14.11c-2.446-1.861-3.228-5.756,0.292-7.325
	c53.834-24.003,99.708-60.473,141.661-101.405c38.414-37.484,74.789-76.1,106.411-119.557
	c21.279-29.242,41.489-59.323,60.375-90.168c0.504-0.826,1.008-1.652,1.51-2.478c0.017-0.171,0.035-0.322,0.054-0.546
	c0.49-5.861,0.979-11.722,1.471-17.586c1.008-12.029,2.012-24.061,3.023-36.09c0.487-5.839,9.649-5.888,9.157,0
	c-1.069,12.784-2.141,25.566-3.211,38.351c-0.604,7.233,0.258,15.857-3.632,22.21c-0.051,0.085-0.105,0.168-0.156,0.253
	c46.689,105.22,181.269,255.047,315.132,315.565c34.249-30.898,78.197-43.885,124.779-27.98c4.47,1.525,3.793,7.542,0.441,8.843
	c11.537,8.068,20.923,20.429,26.724,37.961c19.44,66.928-38.39,181.805-114.808,183.334c-15.888,0.314-29.184-2.151-40.198-6.748
	c-15.288,47.581-38.479,92.409-70.046,130.183c1.778,1.581,2.646,4.497,0.738,6.891c-37.152,46.558-86.073,73.856-139.693,89.162
	c0.08,24.714,0.348,53.379,0.796,84.139c0,0.005,0,0.01,0,0.017c0.088,6.034,0.183,12.151,0.285,18.331
	c0.005,0.341,0.01,0.682,0.017,1.025c0.048,2.885,0.097,5.786,0.151,8.699c0.008,0.47,0.015,0.938,0.022,1.408
	c0.051,2.84,0.102,5.691,0.154,8.553c0.005,0.139,0.005,0.275,0.01,0.412c0.051,2.789,0.104,5.593,0.158,8.402
	c0.017,0.745,0.029,1.491,0.044,2.239c0.053,2.658,0.105,5.32,0.161,7.99c0.017,0.87,0.036,1.742,0.053,2.611
	c0.041,2.061,0.085,4.126,0.132,6.192c0.032,1.457,0.061,2.916,0.093,4.373c0.039,1.803,0.08,3.608,0.119,5.413
	c0.031,1.348,0.061,2.692,0.09,4.039c0.039,1.791,0.083,3.581,0.124,5.376c0.048,2.078,0.097,4.161,0.146,6.244
	c0.019,0.826,0.039,1.654,0.061,2.483c0.083,3.415,0.166,6.83,0.253,10.248c0.005,0.224,0.01,0.451,0.015,0.677
	c0.255,10.073,0.526,20.149,0.814,30.175v-0.002c0.943,32.865,2.056,65.171,3.337,95.069c3.929,0.093,7.849,0.188,11.764,0.285
	c11.722-16.795,22.251-34.746,31.725-53.44c5.218,20.595,13.966,39.031,25.43,55.204c118.37,4.328,228.163,12.609,311.768,24.221
	c21.206-21.223,36.083-47.251,45.8-76.024c-1.286-0.977-2.056-2.582-1.474-4.619c7.632-26.626,11.578-54.093,13.201-81.712
	c0.173-2.918,0.348-5.857,0.526-8.807c-27.978-22.597-52.843-50.092-67.067-82.099c-9.61-21.62-12.609-43.693-9.995-67.242
	c1.196-10.758,5.403-28.833,19.406-28.999c13.398-0.161,24.322,12.587,31.603,22.338c12.972,17.369,22.684,37.669,28.804,58.453
	c8.073,27.423,7.781,55.152,6.896,83.539c-0.102,3.333-0.234,6.665-0.38,9.995c15.73,12.497,32.597,23.396,49.674,32.431
	c47.41,25.094,103.559,33.713,151.739,4.682c41.301-24.889,67.764-68.19,81.423-113.549c0.823-2.738,3.33-3.569,5.495-3.062
	C1944.414,1033.744,1924.346,934.685,1838.794,839.907z"/>
<path style="fill:#FACABB;" d="M1570.123,1365.541c-83.605-11.612-193.398-19.893-311.768-24.221
	c-18.858-0.687-37.932-1.277-57.155-1.764c-3.914-0.098-7.834-0.193-11.764-0.285c-1.281-29.898-2.395-62.204-3.337-95.069
	c-2.409-8.125-4.4-16.378-6.602-24.558c-3.727-13.832-8.748-26.821-15.547-39.44c-6.753-12.531-14.455-24.726-22.614-36.389
	c-7.021-10.032-15.179-19.235-24.239-27.462c-9.084-8.253-19.137-15.389-29.708-21.603c-11.876-6.979-24.682-12.063-37.683-16.514
	c-13.608-4.657-27.53-8.44-40.969-13.566c-13.274-5.067-26.202-11.106-39.844-15.145c-3.539-1.05-7.235-2.127-10.577-3.805
	c-0.063-7.315-0.124-14.434-0.18-21.34c24.46,6.546,50.324,11.035,77.484,13.289c0.148-2.163,1.605-4.222,4.402-4.227
	c102.304-0.192,208.326-19.622,275.597-103.921c1.752-2.195,4.12-1.856,5.737-0.417c31.567-37.773,54.758-82.602,70.046-130.183
	c11.014,4.597,24.31,7.062,40.198,6.748c76.419-1.53,134.248-116.406,114.808-183.334c-5.8-17.532-15.187-29.893-26.724-37.961
	c-0.814,0.314-1.783,0.363-2.877-0.012c-51.481-17.581-98.144,2.161-132.117,42.448c-3.812,4.523-10.258-1.991-6.475-6.475
	c5.123-6.076,10.555-11.688,16.248-16.823c-133.863-60.518-268.443-210.345-315.132-315.565
	c-7.369,12.029-14.982,23.924-22.721,35.741c-12.855,19.623-26.164,38.957-40.073,57.815
	c-32.419,43.946-69.281,83.508-108.628,121.33c-1.252,1.206-2.521,2.392-3.778,3.588c-40.821,38.784-85.089,73.374-136.842,96.448
	c-1.854,0.826-3.613,0.405-4.914-0.582c-11.737,5.411-23.476,10.151-35.152,14.11c1.683,1.91,3.335,3.851,4.95,5.837
	c3.695,4.536-2.745,11.057-6.475,6.477c-22.85-28.07-52.16-49.03-89.707-47.98c-4.96,0.139-5.727-6.278-2.363-8.443
	c-29.486,0.059-56.022,14.424-67.807,50.049c-19.437,66.928,38.392,181.805,114.811,183.334c13.761,0.273,25.559-1.561,35.64-5.032
	c37.435,111.247,122.928,191.919,241.863,223.743c0.738,91.459,2.263,221.656,5.333,314.543
	c-70.132,1.447-138.331,4.402-201.152,8.989c-21.946,1.6-43.235,3.403-63.722,5.408c-6.292,0.614-12.516,1.25-18.653,1.905
	c-40.816,4.353-78.071,9.571-110.526,15.691c-1.54,0.292-3.074,0.582-4.59,0.875c-5.939,1.152-11.712,2.336-17.31,3.549
	c-5.252,1.142-10.341,2.312-15.279,3.506c103.188,57.228,217.371,93.244,333.551,112.725
	c129.247,21.671,262.292,23.064,392.128,5.618c64.711-8.694,129.113-21.764,191.532-41.053
	c65.33-20.19,128.448-47.398,189.001-79.133C1618.405,1372.886,1595.47,1369.059,1570.123,1365.541z"/>
<path style="fill:#87ACDB;" d="M1072.584,281.726C1072.407,282.374,1072.465,282.684,1072.584,281.726L1072.584,281.726z"/>
<path style="fill:#87ACDB;" d="M1441.022,402.313c-3.503,13.754-3.968,30.801,7.233,41.376c8.017,7.569,19.805,10.324,30.197,6.182
	c32.663-13.023,21.096-64.842,5.622-86.541c-3.493-4.899-7.452-9.452-11.727-13.729
	C1457.378,363.77,1446.196,382.011,1441.022,402.313z"/>
<path style="fill:#799FD4;" d="M869.474,573.138c-10.21,1.854-20.058,5.706-25.281,9.61c-6.041,4.516-14.054,12.47-13.988,20.66
	c0.171,21.986,67.903,11.057,72.638-7.7C908.55,573.107,888.392,569.699,869.474,573.138z"/>
<path style="fill:#799FD4;" d="M1255.529,582.749c-5.225-3.902-15.072-7.754-25.281-9.61c-18.918-3.439-39.077-0.031-33.369,22.57
	c4.736,18.757,72.468,29.686,72.638,7.7C1269.58,595.219,1261.571,587.265,1255.529,582.749z"/>
<path style="fill:#F7B8A7;" d="M1185.271,1213.352c-0.087-3.418-0.17-6.833-0.253-10.248c-0.022-0.828-0.042-1.657-0.061-2.483
	c-0.049-2.083-0.098-4.166-0.146-6.244c-0.041-1.795-0.085-3.586-0.124-5.376c-0.029-1.347-0.059-2.692-0.09-4.039
	c-0.039-1.805-0.08-3.61-0.119-5.413c-0.032-1.457-0.061-2.916-0.093-4.373c-0.046-2.066-0.09-4.131-0.132-6.192
	c-0.017-0.87-0.036-1.742-0.053-2.611c-0.056-2.67-0.107-5.333-0.161-7.99c-0.015-0.748-0.027-1.493-0.044-2.239
	c-0.054-2.809-0.107-5.613-0.158-8.402c-0.005-0.137-0.005-0.273-0.01-0.412c-0.051-2.863-0.102-5.713-0.154-8.553
	c-0.007-0.47-0.014-0.938-0.022-1.408c-0.053-2.914-0.102-5.815-0.151-8.699c-0.007-0.343-0.012-0.684-0.017-1.025
	c-0.103-6.18-0.198-12.295-0.285-18.331c0-0.007,0-0.012,0-0.017c-0.448-30.752-0.718-59.432-0.796-84.139
	c-45.51,12.994-94.399,17.352-142.38,17.442c-3.111,0.007-4.565-2.526-4.402-4.931c-27.16-2.253-53.023-6.743-77.484-13.289
	c0.056,6.906,0.117,14.025,0.18,21.34c3.342,1.678,7.038,2.755,10.577,3.805c13.642,4.039,26.57,10.078,39.844,15.145
	c13.439,5.126,27.361,8.909,40.969,13.566c13.001,4.451,25.807,9.535,37.683,16.514c10.57,6.214,20.624,13.35,29.708,21.603
	c9.06,8.227,17.218,17.43,24.239,27.462c8.158,11.664,15.861,23.859,22.614,36.389c6.799,12.619,11.82,25.608,15.547,39.44
	c2.202,8.18,4.193,16.433,6.602,24.558c-0.288-10.027-0.558-20.102-0.814-30.173
	C1185.281,1213.802,1185.276,1213.576,1185.271,1213.352z"/>
<path style="fill:#F7B8A7;" d="M1379.414,726.89c-11.084-20.324-29.048-31.717-48.806-35.785
	c-51.04-10.516-114.014,27.844-101.084,87.323c5.732,26.368,17.196,55.03,43.566,64.2c32.1,10.319,68.787,6.882,90.567-19.494
	c1.6-1.929,3.052-3.968,4.424-6.068C1383.465,793.499,1393.738,753.158,1379.414,726.89z"/>
<path style="fill:#F7B8A7;" d="M778.58,691.104c-19.757,4.068-37.725,15.461-48.809,35.785
	c-14.322,26.268-4.047,66.609,11.335,90.175c1.369,2.1,2.823,4.139,4.422,6.068c21.786,26.376,58.472,29.812,90.572,19.494
	c26.367-9.169,37.834-37.832,43.566-64.2C892.597,718.948,829.62,680.588,778.58,691.104z"/>
<path style="fill:#3D1C10;" d="M1920.278,1113.929c-13.659,45.359-40.122,88.66-81.423,113.549
	c-48.18,29.031-104.328,20.412-151.739-4.682c-17.077-9.035-33.944-19.934-49.674-32.431c0.146-3.33,0.278-6.662,0.38-9.995
	c0.885-28.387,1.177-56.116-6.896-83.539c-6.12-20.784-15.832-41.084-28.804-58.453c-7.281-9.752-18.205-22.499-31.603-22.338
	c-14.003,0.166-18.209,18.241-19.406,28.999c-2.614,23.549,0.385,45.622,9.995,67.242c14.224,32.007,39.089,59.503,67.067,82.099
	c-0.178,2.95-0.353,5.888-0.526,8.807c-1.622,27.62-5.569,55.086-13.201,81.712c-0.582,2.036,0.188,3.642,1.474,4.619
	c2.312,1.751,6.314,1.452,7.357-2.185c8.056-28.105,11.851-57.04,13.605-86.134c10.402,7.866,21.111,15.077,31.774,21.608
	c50.272,30.801,108.821,44.005,164.312,18.176c49.33-22.958,80.945-74.168,96.139-124.619c0.879-2.916-1.038-4.957-3.335-5.495
	C1923.608,1110.36,1921.101,1111.191,1920.278,1113.929z M1570.23,1110.246c-10.928-22.173-14.327-49.211-8.358-73.308
	c4.962-20.034,19.859-8.37,28.899,1.846c21.094,23.854,33.912,58.4,37.457,89.688c2.029,17.876,1.542,36.485,0.577,54.775
	C1604.69,1162.567,1583.889,1137.96,1570.23,1110.246z"/>
<path style="fill:#3D1C10;" d="M558.452,1369.841c-26.143-8.704-49.364-24.387-68.836-43.91
	c-14.231-14.275-26.475-30.594-36.329-47.795c-25.225-44.029-34.029-96.745-22.631-146.292c0.166-0.721,0.373-1.428,0.545-2.146
	c6.339-1.863,12.577-3.825,18.67-5.815c36.733-12.017,75.345-28.868,102.906-56.76c20.175-20.423,30.497-53.566,9.554-77.7
	c-23.201-26.733-58.567,9.396-74.37,26.711c-23.091,25.303-44.704,54.835-57.715,86.709c-2.614,6.409-4.799,12.909-6.655,19.459
	c-10.704,2.777-21.474,5.142-32.21,7.113c-16.797,3.087-34.081,5.055-51.174,3.995c-20.521-1.274-41.06-11.237-58.234-21.932
	c-81.279-50.604-99.208-163.502-70.185-248.53c18.275-53.52,60.624-97.093,102.794-133.106c0.054-0.046,0.11-0.09,0.164-0.136
	c31.798-27.121,68.253-47.51,103.997-68.891c9.303-5.566,18.56-11.196,27.673-17.036c5.157-3.303,10.253-6.692,15.335-10.107
	c2.604-1.751,2.5-4.821,1.094-6.806c-1.22-1.732-3.422-2.641-5.715-1.104c-43.591,29.299-91.074,52.704-132.896,84.614
	c-23.734,18.109-45.123,38.95-65.096,61.094c-17.493,19.391-33.513,39.332-45.215,62.777
	c-38.906,77.932-32.531,180.872,22.928,249.308c24.516,30.255,63.793,55.956,103.357,59.016c26.582,2.053,54.382-2.848,80.791-9.995
	c-18.243,81.888,19.549,171.016,86.709,220.745c12.575,9.311,25.963,16.663,39.805,22.02c5.598-1.213,11.372-2.397,17.31-3.549
	C562.7,1371.185,560.576,1370.547,558.452,1369.841z M486.262,1032.036c16.485-19.91,60.263-68.628,76.336-23.043
	c12.253,34.748-25.294,62.592-50.831,77.722c-24.044,14.248-50.526,24.894-77.683,32.704
	C444.415,1086.828,464.569,1058.231,486.262,1032.036z"/>
<path style="fill:#3D1C10;" d="M1487.779,631.616c-28.731,10.631-53.663,29.917-74.772,52.819c-0.334,5.042-0.75,10.092-1.24,15.145
	c2.865-3.398,5.812-6.736,8.838-9.995c0.299-0.132,0.602-0.305,0.903-0.521c11.581-8.302,24.614-13.567,38.178-6.641
	c8.056,4.11,13.673,12.621,15.393,21.318c1.145,5.79,9.971,3.333,8.83-2.434c-2.424-12.276-10.938-22.373-21.954-27.993
	c-7.004-3.574-14.338-4.146-21.478-2.85c14.996-12.775,31.583-23.301,49.737-30.017
	C1495.702,638.415,1493.329,629.56,1487.779,631.616z"/>
<path style="fill:#3D1C10;" d="M695.404,680.376c-20.278-21.111-43.937-38.765-70.952-48.76c-5.552-2.056-7.925,6.799-2.436,8.831
	c18.154,6.716,34.741,17.242,49.735,30.017c-7.138-1.296-14.475-0.724-21.476,2.85c-11.016,5.62-19.53,15.717-21.954,27.993
	c-1.14,5.766,7.686,8.224,8.831,2.434c1.82-9.206,7.462-16.446,15.391-21.318c12.762-7.844,27.352-1.123,38.177,6.641
	c0.302,0.216,0.604,0.39,0.906,0.521c1.496,1.61,2.965,3.242,4.421,4.891C695.764,689.808,695.545,685.112,695.404,680.376z"/>
<path style="fill:#3D1C10;" d="M1092.265,819.869c2.787-5.206-5.118-9.829-7.908-4.623c-11.8,22.031-47.63,22.031-59.432,0
	c-2.789-5.206-10.695-0.582-7.908,4.623C1031.998,847.83,1077.286,847.83,1092.265,819.869z"/>
<path style="fill:#3D1C10;" d="M859.92,663.709c-0.302,0.292-0.585,0.626-0.828,1.045c-0.366,0.512-0.578,1.016-0.706,1.513
	c-3.182,6.967-1.774,15.876,4.414,20.769c7.191,5.686,17.601,3.374,22.168-4.363c3.91-6.621,2.436-15.708-2.614-21.237
	C876.051,654.537,865.326,657.338,859.92,663.709z"/>
<path style="fill:#3D1C10;" d="M1219.588,687.036c7.189,5.686,17.598,3.374,22.165-4.363c3.907-6.621,2.434-15.708-2.616-21.237
	c-6.302-6.899-17.018-4.095-22.429,2.273c-0.302,0.292-0.587,0.626-0.833,1.045c-0.365,0.512-0.58,1.021-0.706,1.518
	C1211.99,673.238,1213.4,682.144,1219.588,687.036z"/>
<path style="fill:#3D1C10;" d="M1063.863,753.231c4.28-4.088-2.207-10.55-6.475-6.477c-10.94,10.451-26.323-5.695-20.411-17.53
	c3.518-7.04,16.319-12.117,17.372-0.76c0.47,5.065,7.361,6.334,8.996,1.216c4.719-14.794,5.113-28.616-2.163-42.619
	c-2.724-5.242-10.626-0.611-7.908,4.621c4.178,8.041,5.065,15.88,3.966,23.963c-8.536-6.258-23.257-0.88-29.186,10.984
	C1017.605,747.547,1047.079,769.26,1063.863,753.231z"/>
<path style="fill:#3D1C10;" d="M1315.619,929.52c-67.271,84.299-173.293,103.729-275.597,103.921
	c-2.797,0.005-4.254,2.063-4.402,4.227c-0.164,2.404,1.291,4.938,4.402,4.931c47.98-0.09,96.87-4.448,142.38-17.442l0,0
	c53.62-15.306,102.54-42.604,139.693-89.162c1.907-2.395,1.04-5.31-0.738-6.891C1319.739,927.664,1317.371,927.325,1315.619,929.52z
	"/>
<path style="fill:#3D1C10;" d="M635.991,580.729c37.547-1.05,66.857,19.91,89.707,47.98c3.73,4.58,10.171-1.941,6.475-6.477
	c-1.615-1.986-3.267-3.927-4.95-5.837c-23.678-26.862-54.051-45.864-91.232-44.826c-0.943,0.027-1.72,0.302-2.363,0.716
	C630.264,574.451,631.031,580.868,635.991,580.729z"/>
<path style="fill:#3D1C10;" d="M1378.216,620.334c-3.783,4.485,2.663,10.999,6.475,6.475c33.973-40.287,80.636-60.03,132.117-42.448
	c1.094,0.375,2.063,0.326,2.877,0.012c3.352-1.301,4.03-7.318-0.441-8.843c-46.582-15.905-90.531-2.918-124.779,27.98
	C1388.771,608.646,1383.339,614.259,1378.216,620.334z"/>
<path style="fill:#3D1C10;" d="M767.289,602.868c51.754-23.074,96.022-57.664,136.842-96.448c1.257-1.196,2.526-2.382,3.778-3.588
	c39.347-37.822,76.209-77.384,108.628-121.33c13.91-18.858,27.218-38.192,40.073-57.815c7.739-11.817,15.352-23.712,22.721-35.741
	c0.051-0.085,0.105-0.168,0.156-0.253c3.89-6.353,3.028-14.977,3.632-22.21c1.069-12.784,2.141-25.566,3.211-38.351
	c0.492-5.888-8.67-5.839-9.157,0c-1.011,12.03-2.015,24.061-3.023,36.09c-0.492,5.864-0.982,11.725-1.471,17.586
	c-0.019,0.224-0.036,0.375-0.054,0.546c-0.502,0.826-1.006,1.652-1.51,2.478c-18.886,30.845-39.096,60.926-60.375,90.168
	c-31.622,43.457-67.997,82.073-106.411,119.557c-41.953,40.933-87.827,77.403-141.661,101.405c-3.52,1.569-2.738,5.464-0.292,7.325
	C763.677,603.273,765.435,603.694,767.289,602.868z M1072.584,281.726C1072.465,282.684,1072.407,282.374,1072.584,281.726
	L1072.584,281.726z"/>
<path style="fill:#3D1C10;" d="M554.013,606.659c5.052,3.091,9.651-4.831,4.623-7.905c-53.055-32.47-85.388-85.612-81.983-148.582
	c2.994-55.389,31.459-102.051,84.138-121.983c33.606-12.716,72.059-11.405,102.319,6.015c0.203,0.114,0.405,0.236,0.609,0.355
	c4.47,2.612,8.765,5.564,12.828,8.897c-2.166,2.148-4.285,4.344-6.292,6.635c-20.295,23.186-31.454,62.84-15.869,91.267
	c11.021,20.097,38.472,25.776,56.375,11.422c27.247-21.842,12.429-61.642-2.519-85.924c-5.345-8.684-11.51-16.409-18.356-23.15
	c11.583-9.905,25.208-17.837,39.179-24.117c18.424-8.283,40.68-14.745,62.426-15.46c-4.502,13.562-7.995,27.464-10.562,41.513
	c-3.808,20.826-5.364,44.086,5.985,62.958c18.141,30.178,55.179,15.413,70.131-8.997c16.039-26.19,17.257-67.693-7.886-88.579
	c-12.526-10.405-28.46-14.714-44.865-15.601c5.946-15.298,13.404-29.983,22.117-43.912
	c48.96-78.309,138.753-116.095,228.214-121.038c2.577-0.141,4.027-1.983,4.349-3.978c0.411-2.555-1.03-5.364-4.349-5.181
	c-29.954,1.654-59.503,6.916-87.534,15.844c-68.757,21.892-128.338,65.958-162.061,133.829c-3.922,7.895-7.359,16.012-10.424,24.265
	c-11.566,0.261-23.091,1.969-33.544,4.237c-27.978,6.073-56.163,18.84-78.075,37.961c-4.368-3.659-8.972-6.95-13.778-9.876
	c-21.625-13.177-47.362-18.898-74.655-16.455c-43.613,3.9-85.656,28.602-107.681,66.77c-21.125,36.621-24.551,85.893-14.143,126.204
	c7.103,27.513,22.097,51.488,41.627,71.313C526.167,587.39,539.628,597.857,554.013,606.659z M830.987,310.669
	c34.894,14.731,34.224,60.27,15.727,88.114c-7.257,10.921-20.419,19.608-33.944,17.593c-16.353-2.436-23.223-19.764-25.018-34.193
	c-2.852-22.948,3.929-47.666,10.541-69.464c0.868-2.855,1.795-5.688,2.767-8.504C811.467,304.737,821.611,306.713,830.987,310.669z
	 M692.739,360.323c15.766,20.911,43.303,75.147,4.497,89.737c-10.723,4.032-22.436,0.828-30.375-7.147
	c-12.185-12.244-11.355-32.504-8.348-48.073c3.486-18.071,12.653-32.96,24.921-45.177
	C686.732,352.939,689.845,356.489,692.739,360.323z"/>
<path style="fill:#3D1C10;" d="M1100.915,130.475c55.396,3.06,109.725,17.788,156.477,48.243
	c42.923,27.966,75.235,69.403,93.847,116.882c-25.81,1.624-51.323,12.555-60.804,38.431c-11.026,30.09,2.54,75.293,33.064,88.548
	c12.707,5.52,26.305,3.637,37.167-4.765c14.76-11.413,17.243-33.349,16.65-50.516c-0.716-20.782-5.138-42.105-12.232-62.716
	c9.644,0.538,18.977,2.005,26.965,3.742c25.842,5.608,52.748,17.152,73.447,34.891c-18.129,17.644-31.118,40.952-35.084,65.12
	c-4.058,24.729,8.682,50.124,35.401,52.533c28.402,2.558,42.479-26.017,42.241-50.297c-0.263-26.684-11.528-49.13-28.831-66.94
	c13.069-10.519,28.417-18.165,44.943-21.732c39.686-8.57,83.364,5.423,113.393,31.881c33.983,29.937,44.677,79.732,40.93,123.278
	c-4.492,52.217-37.992,95.018-81.579,121.695c-5.028,3.074-0.431,10.996,4.624,7.905c20.173-12.343,37.71-27.593,51.664-45.345
	c18.757-23.858,31.033-52.248,34.45-84.256c5.257-49.271-10.665-103.352-49.91-135.069c-34.029-27.503-81.564-38.275-123.9-27.023
	c-5.766,1.532-11.395,3.635-16.845,6.202c-8.78,4.134-17.072,9.517-24.648,15.864c-29.71-26.295-73.043-40.743-110.604-41.605
	c-9.781-25.284-23.478-49.176-39.344-69.225c-38.285-48.385-91.518-78.701-149.617-93.822c-23.386-6.085-47.556-9.72-71.866-11.064
	c-3.225-0.178-4.665,2.475-4.363,4.969C1096.803,128.36,1098.253,130.326,1100.915,130.475z M1484.074,363.331
	c15.474,21.698,27.041,73.518-5.622,86.541c-10.392,4.141-22.18,1.386-30.197-6.182c-11.201-10.575-10.736-27.623-7.233-41.376
	c5.175-20.302,16.356-38.543,31.326-52.711C1476.623,353.88,1480.581,358.433,1484.074,363.331z M1367.794,382.184
	c-1.598,17.771-12.268,35.676-32.002,34.351c-37.437-2.521-48.497-63.157-31.878-89.393c10.585-16.706,30.499-22.263,50.646-22.74
	C1363.256,328.818,1370.114,356.394,1367.794,382.184z"/>
<path style="fill:#3D1C10;" d="M586.189,1872.768c0.095,38.295,2.299,76.643,4.256,114.884c0.3,5.873,9.459,5.903,9.157,0
	c-1.956-38.241-4.16-76.589-4.256-114.884C595.333,1866.863,586.174,1866.863,586.189,1872.768z"/>
<path style="fill:#3D1C10;" d="M1605.894,1872.768c-0.031-5.902-9.189-5.905-9.159,0c0.175,36.923,4.081,73.705,4.253,110.628
	c0.005,0.563,0.11,1.05,0.263,1.506c1.342,4.022,7.89,3.885,8.794-0.448c0.065-0.329,0.104-0.68,0.1-1.057
	C1609.972,1946.473,1606.067,1909.691,1605.894,1872.768z"/>
</svg>
